<svg width="141" height="134" viewBox="0 0 141 134" fill="none" xmlns="http://www.w3.org/2000/svg">
<g clip-path="url(#clip0_4349_6667)">
<path d="M71.5497 107.349C12.4592 3.21648 11.4368 -26.3606 140.545 38.3535" stroke="url(#paint0_linear_4349_6667)" stroke-width="1.33971" stroke-linecap="round"/>
<path d="M64.7967 105.946C13.3911 9.49826 13.8094 -18.6381 133.792 36.9504" stroke="url(#paint1_linear_4349_6667)" stroke-width="1.33971" stroke-linecap="round"/>
<path d="M58.022 104.542C14.3013 15.7799 16.1603 -10.9158 127.017 35.5472" stroke="url(#paint2_linear_4349_6667)" stroke-width="1.33971" stroke-linecap="round"/>
<path d="M51.2691 103.139C15.2332 22.0617 18.5329 -3.19331 120.264 34.1441" stroke="url(#paint3_linear_4349_6667)" stroke-width="1.33971" stroke-linecap="round"/>
<path d="M44.5051 101.736C16.1542 28.3433 20.8945 4.52904 113.5 32.7408" stroke="url(#paint4_linear_4349_6667)" stroke-width="1.33971" stroke-linecap="round"/>
<path d="M37.7411 100.333C17.0751 34.6251 23.2562 12.2515 106.736 31.3377" stroke="url(#paint5_linear_4349_6667)" stroke-width="1.33971" stroke-linecap="round"/>
<path d="M30.9772 98.9298C17.9961 40.9069 25.6178 19.974 99.9724 29.9346" stroke="url(#paint6_linear_4349_6667)" stroke-width="1.33971" stroke-linecap="round"/>
<path d="M24.2132 97.5266C18.917 47.1886 27.9794 27.6963 93.2085 28.5314" stroke="url(#paint7_linear_4349_6667)" stroke-width="1.33971" stroke-linecap="round"/>
<path d="M17.4603 96.1235C19.8489 53.4703 30.352 35.4188 86.4555 27.1283" stroke="url(#paint8_linear_4349_6667)" stroke-width="1.33971" stroke-linecap="round"/>
<path d="M10.6856 94.7202C20.7591 59.752 32.7029 43.1412 79.6808 25.725" stroke="url(#paint9_linear_4349_6667)" stroke-width="1.33971" stroke-linecap="round"/>
</g>
<g clip-path="url(#clip1_4349_6667)">
<path d="M80.551 30.4926C139.641 134.625 138.766 160.406 9.65781 95.692" stroke="url(#paint10_linear_4349_6667)" stroke-width="1.33971" stroke-linecap="round"/>
<path d="M86.1276 29.7113C137.533 126.159 136.397 152.684 16.4144 97.0954" stroke="url(#paint11_linear_4349_6667)" stroke-width="1.33971" stroke-linecap="round"/>
<path d="M92.7139 30.493C136.435 119.255 134.033 144.962 23.1758 98.4987" stroke="url(#paint12_linear_4349_6667)" stroke-width="1.33971" stroke-linecap="round"/>
<path d="M99.2 31.0509C135.236 112.129 131.68 137.239 29.9486 99.9016" stroke="url(#paint13_linear_4349_6667)" stroke-width="1.33971" stroke-linecap="round"/>
<path d="M105.693 32.3097C134.044 105.702 129.304 129.517 36.6982 101.305" stroke="url(#paint14_linear_4349_6667)" stroke-width="1.33971" stroke-linecap="round"/>
<path d="M112.457 33.7128C133.123 99.4207 126.942 121.794 43.4621 102.708" stroke="url(#paint15_linear_4349_6667)" stroke-width="1.33971" stroke-linecap="round"/>
<path d="M119.221 35.1161C132.202 93.139 124.581 114.072 50.2261 104.111" stroke="url(#paint16_linear_4349_6667)" stroke-width="1.33971" stroke-linecap="round"/>
<path d="M125.985 36.5192C131.281 86.8572 122.219 106.349 56.9898 105.514" stroke="url(#paint17_linear_4349_6667)" stroke-width="1.33971" stroke-linecap="round"/>
<path d="M132.749 37.9224C130.36 80.5756 119.857 98.6271 63.7537 106.918" stroke="url(#paint18_linear_4349_6667)" stroke-width="1.33971" stroke-linecap="round"/>
<path d="M139.502 39.3255C129.428 74.2938 117.485 90.9046 70.5067 108.321" stroke="url(#paint19_linear_4349_6667)" stroke-width="1.33971" stroke-linecap="round"/>
</g>
<defs>
<linearGradient id="paint0_linear_4349_6667" x1="52.4535" y1="59.5153" x2="93.4882" y2="18.4807" gradientUnits="userSpaceOnUse">
<stop stop-color="#DEDEDE"/>
<stop offset="1" stop-color="#BABABA"/>
</linearGradient>
<linearGradient id="paint1_linear_4349_6667" x1="48.8517" y1="61.2634" x2="89.8864" y2="20.2287" gradientUnits="userSpaceOnUse">
<stop stop-color="#DEDEDE"/>
<stop offset="1" stop-color="#BABABA"/>
</linearGradient>
<linearGradient id="paint2_linear_4349_6667" x1="45.2282" y1="63.0114" x2="86.2629" y2="21.9767" gradientUnits="userSpaceOnUse">
<stop stop-color="#DEDEDE"/>
<stop offset="1" stop-color="#BABABA"/>
</linearGradient>
<linearGradient id="paint3_linear_4349_6667" x1="41.6264" y1="64.7595" x2="82.6611" y2="23.7248" gradientUnits="userSpaceOnUse">
<stop stop-color="#DEDEDE"/>
<stop offset="1" stop-color="#BABABA"/>
</linearGradient>
<linearGradient id="paint4_linear_4349_6667" x1="38.0137" y1="66.5074" x2="79.0484" y2="25.4727" gradientUnits="userSpaceOnUse">
<stop stop-color="#DEDEDE"/>
<stop offset="1" stop-color="#BABABA"/>
</linearGradient>
<linearGradient id="paint5_linear_4349_6667" x1="34.4009" y1="68.2555" x2="75.4356" y2="27.2208" gradientUnits="userSpaceOnUse">
<stop stop-color="#DEDEDE"/>
<stop offset="1" stop-color="#BABABA"/>
</linearGradient>
<linearGradient id="paint6_linear_4349_6667" x1="30.7882" y1="70.0036" x2="71.8229" y2="28.9689" gradientUnits="userSpaceOnUse">
<stop stop-color="#DEDEDE"/>
<stop offset="1" stop-color="#BABABA"/>
</linearGradient>
<linearGradient id="paint7_linear_4349_6667" x1="27.1754" y1="71.7515" x2="68.2101" y2="30.7169" gradientUnits="userSpaceOnUse">
<stop stop-color="#DEDEDE"/>
<stop offset="1" stop-color="#BABABA"/>
</linearGradient>
<linearGradient id="paint8_linear_4349_6667" x1="23.5736" y1="73.4996" x2="64.6083" y2="32.4649" gradientUnits="userSpaceOnUse">
<stop stop-color="#DEDEDE"/>
<stop offset="1" stop-color="#BABABA"/>
</linearGradient>
<linearGradient id="paint9_linear_4349_6667" x1="19.9501" y1="75.2476" x2="60.9848" y2="34.2129" gradientUnits="userSpaceOnUse">
<stop stop-color="#DEDEDE"/>
<stop offset="1" stop-color="#BABABA"/>
</linearGradient>
<linearGradient id="paint10_linear_4349_6667" x1="97.7493" y1="74.5301" x2="56.7146" y2="115.565" gradientUnits="userSpaceOnUse">
<stop stop-color="#DEDEDE"/>
<stop offset="1" stop-color="#BABABA"/>
</linearGradient>
<linearGradient id="paint11_linear_4349_6667" x1="101.355" y1="72.7824" x2="60.3199" y2="113.817" gradientUnits="userSpaceOnUse">
<stop stop-color="#DEDEDE"/>
<stop offset="1" stop-color="#BABABA"/>
</linearGradient>
<linearGradient id="paint12_linear_4349_6667" x1="104.965" y1="71.0346" x2="63.9302" y2="112.069" gradientUnits="userSpaceOnUse">
<stop stop-color="#DEDEDE"/>
<stop offset="1" stop-color="#BABABA"/>
</linearGradient>
<linearGradient id="paint13_linear_4349_6667" x1="108.586" y1="69.2863" x2="67.5518" y2="110.321" gradientUnits="userSpaceOnUse">
<stop stop-color="#DEDEDE"/>
<stop offset="1" stop-color="#BABABA"/>
</linearGradient>
<linearGradient id="paint14_linear_4349_6667" x1="112.185" y1="67.5384" x2="71.1501" y2="108.573" gradientUnits="userSpaceOnUse">
<stop stop-color="#DEDEDE"/>
<stop offset="1" stop-color="#BABABA"/>
</linearGradient>
<linearGradient id="paint15_linear_4349_6667" x1="115.798" y1="65.7903" x2="74.7629" y2="106.825" gradientUnits="userSpaceOnUse">
<stop stop-color="#DEDEDE"/>
<stop offset="1" stop-color="#BABABA"/>
</linearGradient>
<linearGradient id="paint16_linear_4349_6667" x1="119.41" y1="64.0423" x2="78.3756" y2="105.077" gradientUnits="userSpaceOnUse">
<stop stop-color="#DEDEDE"/>
<stop offset="1" stop-color="#BABABA"/>
</linearGradient>
<linearGradient id="paint17_linear_4349_6667" x1="123.023" y1="62.2942" x2="81.9881" y2="103.329" gradientUnits="userSpaceOnUse">
<stop stop-color="#DEDEDE"/>
<stop offset="1" stop-color="#BABABA"/>
</linearGradient>
<linearGradient id="paint18_linear_4349_6667" x1="126.636" y1="60.5463" x2="85.6009" y2="101.581" gradientUnits="userSpaceOnUse">
<stop stop-color="#DEDEDE"/>
<stop offset="1" stop-color="#BABABA"/>
</linearGradient>
<linearGradient id="paint19_linear_4349_6667" x1="130.237" y1="58.7982" x2="89.2027" y2="99.8329" gradientUnits="userSpaceOnUse">
<stop stop-color="#DEDEDE"/>
<stop offset="1" stop-color="#BABABA"/>
</linearGradient>
<clipPath id="clip0_4349_6667">
<rect width="140" height="106.507" fill="white" transform="translate(0.5 0.795898)"/>
</clipPath>
<clipPath id="clip1_4349_6667">
<rect width="130.845" height="105.614" fill="white" transform="matrix(-1 0 0 -1 140.5 133.204)"/>
</clipPath>
</defs>
</svg>
