<svg width="141" height="155" viewBox="0 0 141 155" fill="none" xmlns="http://www.w3.org/2000/svg">
<g filter="url(#filter0_i_4349_6701)">
<path opacity="0.01" d="M53.5837 77.2045C53.9488 56.2884 56.22 37.3998 59.5905 23.7729C61.2766 16.956 63.2322 11.4796 65.3478 7.72812C66.4058 5.85212 67.4926 4.42786 68.5885 3.48209C69.6817 2.5386 70.7611 2.08948 71.8222 2.108C72.8832 2.12652 73.9463 2.61304 75.0059 3.5941C76.0681 4.57754 77.1045 6.03886 78.0964 7.95064C80.0799 11.7737 81.8431 17.315 83.2903 24.1866C86.1831 37.9229 87.7938 56.8792 87.4287 77.7953C87.0636 98.7114 84.7924 117.6 81.4219 131.227C79.7358 138.044 77.7802 143.52 75.6646 147.272C74.6066 149.148 73.5198 150.572 72.4239 151.518C71.3307 152.461 70.2513 152.91 69.1902 152.892C68.1292 152.873 67.0661 152.387 66.0065 151.406C64.9443 150.422 63.9079 148.961 62.916 147.049C60.9325 143.226 59.1693 137.685 57.7221 130.813C54.8293 117.077 53.2186 98.1206 53.5837 77.2045Z" stroke="url(#paint0_linear_4349_6701)" stroke-width="0.867953"/>
<path opacity="0.0204082" d="M53.9597 73.9811C58.2405 53.8417 64.0119 36.0258 69.8754 23.5042C72.8086 17.2401 75.7546 12.3233 78.534 9.10369C79.9238 7.49374 81.2571 6.32572 82.5097 5.62151C83.7591 4.91911 84.9038 4.69061 85.9441 4.91173C86.9843 5.13284 87.9372 5.8072 88.7929 6.95704C89.6507 8.10984 90.3937 9.71919 91.0086 11.7552C92.2381 15.8269 92.9296 21.5169 93.0614 28.4325C93.3249 42.2565 91.351 60.8795 87.0702 81.0189C82.7894 101.158 77.018 118.974 71.1546 131.496C68.2214 137.76 65.2754 142.677 62.496 145.896C61.1062 147.506 59.7728 148.674 58.5203 149.379C57.2709 150.081 56.1261 150.309 55.0859 150.088C54.0456 149.867 53.0927 149.193 52.2371 148.043C51.3792 146.89 50.6362 145.281 50.0214 143.245C48.7918 139.173 48.1004 133.483 47.9686 126.568C47.7051 112.744 49.679 94.1205 53.9597 73.9811Z" stroke="url(#paint1_linear_4349_6701)" stroke-width="0.867953"/>
<path opacity="0.0408163" d="M54.9224 70.8868C62.8384 52.2379 71.7864 36.1257 79.8464 25.1521C83.8785 19.6625 87.674 15.4788 90.9923 12.9044C94.3436 10.3044 97.0651 9.45304 99.0319 10.2879C100.999 11.1227 102.277 13.6718 102.734 17.8886C103.188 22.064 102.815 27.7004 101.667 34.4143C99.372 47.8351 93.9976 65.4642 86.0817 84.1131C78.1657 102.762 69.2177 118.874 61.1577 129.848C57.1255 135.337 53.3301 139.521 50.0118 142.095C46.6605 144.695 43.9389 145.547 41.9722 144.712C40.0055 143.877 38.7274 141.328 38.2696 137.111C37.8164 132.936 38.1894 127.299 39.3373 120.586C41.6321 107.165 47.0064 89.5356 54.9224 70.8868Z" stroke="url(#paint2_linear_4349_6701)" stroke-width="0.867953"/>
<path opacity="0.0612245" d="M56.4796 68.0356C67.624 51.5133 79.3147 37.6523 89.1992 28.5977C94.144 24.0679 98.6187 20.758 102.333 18.914C106.082 17.0525 108.9 16.7592 110.674 17.9559C112.448 19.1527 113.232 21.8752 112.911 26.0488C112.592 30.1832 111.199 35.572 108.852 41.8536C104.159 54.4103 95.6871 70.4421 84.5427 86.9644C73.3983 103.487 61.7076 117.348 51.8231 126.402C46.8783 130.932 42.4036 134.242 38.6896 136.086C34.9402 137.947 32.1224 138.241 30.3482 137.044C28.574 135.847 27.7903 133.125 28.1117 128.951C28.4301 124.817 29.8229 119.428 32.1704 113.146C36.8629 100.59 45.3352 84.5578 56.4796 68.0356Z" stroke="url(#paint3_linear_4349_6701)" stroke-width="0.867953"/>
<path opacity="0.0816327" d="M58.54 65.5321C72.3989 51.6731 86.3082 40.5088 97.5854 33.6595C103.227 30.233 108.189 27.8995 112.143 26.8405C116.133 25.772 118.935 26.0414 120.451 27.5572C121.966 29.073 122.236 31.8748 121.167 35.8648C120.108 39.8191 117.775 44.7807 114.348 50.4223C107.499 61.6995 96.3346 75.6088 82.4757 89.4677C68.6167 103.327 54.7075 114.491 43.4303 121.34C37.7887 124.767 32.827 127.1 28.8727 128.159C24.8827 129.228 22.0809 128.958 20.5651 127.443C19.0493 125.927 18.7799 123.125 19.8485 119.135C20.9074 115.181 23.2409 110.219 26.6674 104.577C33.5168 93.3003 44.6811 79.391 58.54 65.5321Z" stroke="url(#paint4_linear_4349_6701)" stroke-width="0.867953"/>
<path opacity="0.102041" d="M61.039 63.4683C77.0141 52.6929 92.5502 44.5549 104.747 40.104C110.849 37.8774 116.092 36.5823 120.125 36.3307C124.192 36.0769 126.868 36.8914 128.069 38.6716C129.269 40.4518 129.022 43.2374 127.263 46.9137C125.519 50.5588 122.354 54.9346 118.004 59.758C109.308 69.3997 95.9429 80.756 79.9677 91.5313C63.9926 102.307 48.4565 110.445 36.2593 114.896C30.1575 117.122 24.9148 118.417 20.8818 118.669C16.8143 118.923 14.1389 118.108 12.9381 116.328C11.7374 114.548 11.9844 111.762 13.7434 108.086C15.4875 104.441 18.6523 100.065 23.0025 95.2416C31.6984 85.5999 45.0638 74.2436 61.039 63.4683Z" stroke="url(#paint5_linear_4349_6701)" stroke-width="0.867953"/>
<path opacity="0.122449" d="M63.8868 61.9204C81.3207 54.5201 97.8489 49.6128 110.472 47.6553C116.787 46.6761 122.099 46.4391 126.05 46.9847C130.033 47.5347 132.477 48.8554 133.318 50.8354C134.158 52.8154 133.41 55.4915 131.039 58.7385C128.687 61.9594 124.826 65.6163 119.735 69.4786C109.559 77.1989 94.547 85.6794 77.1131 93.0796C59.6793 100.48 43.151 105.387 30.5282 107.345C24.2134 108.324 18.9009 108.561 14.9501 108.015C10.9674 107.465 8.52263 106.145 7.68218 104.165C6.84174 102.185 7.58997 99.5085 9.96098 96.2615C12.3129 93.0406 16.1738 89.3837 21.2648 85.5214C31.4414 77.8011 46.453 69.3206 63.8868 61.9204Z" stroke="url(#paint6_linear_4349_6701)" stroke-width="0.867953"/>
<path opacity="0.142857" d="M66.9892 60.9446C85.192 57.0755 102.06 55.4741 114.613 56.0059C120.892 56.2719 126.067 57.0709 129.781 58.3722C133.524 59.6834 135.644 61.4519 136.092 63.5595C136.54 65.6671 135.323 68.1451 132.437 70.8653C129.573 73.565 125.171 76.3994 119.542 79.1966C108.291 84.7879 92.2298 90.1859 74.0271 94.0551C55.8243 97.9242 38.9558 99.5256 26.4034 98.9938C20.1238 98.7278 14.9497 97.9288 11.2351 96.6275C7.49221 95.3163 5.37197 93.5478 4.92399 91.4402C4.476 89.3326 5.69362 86.8546 8.5796 84.1344C11.4437 81.4347 15.8456 78.6003 21.4741 75.8031C32.725 70.2118 48.7864 64.8137 66.9892 60.9446Z" stroke="url(#paint7_linear_4349_6701)" stroke-width="0.867953"/>
<path opacity="0.163265" d="M70.2144 60.5775C88.491 60.2585 105.056 61.9103 117.06 64.8308C123.065 66.2918 127.904 68.0645 131.241 70.051C134.602 72.0517 136.318 74.1925 136.356 76.3506C136.393 78.5088 134.753 80.7081 131.464 82.8249C128.198 84.9267 123.424 86.8672 117.474 88.5369C105.579 91.8745 89.0818 94.1035 70.8052 94.4225C52.5285 94.7415 35.9634 93.0897 23.9597 90.1692C17.9546 88.7082 13.1158 86.9354 9.77849 84.949C6.41726 82.9483 4.70158 80.8075 4.66391 78.6493C4.62624 76.4912 6.26616 74.2918 9.55552 72.175C12.8215 70.0733 17.5955 68.1328 23.5459 66.463C35.4404 63.1254 51.9378 60.8965 70.2144 60.5775Z" stroke="url(#paint8_linear_4349_6701)" stroke-width="0.867953"/>
<path opacity="0.183673" d="M73.4412 60.832C91.1179 63.9489 106.769 68.6791 117.782 73.7983C123.291 76.3593 127.616 79.0071 130.453 81.5826C133.31 84.1753 134.558 86.599 134.182 88.7285C133.807 90.8579 131.805 92.7086 128.234 94.1681C124.687 95.6178 119.717 96.6266 113.664 97.1488C101.565 98.1928 85.2399 97.2848 67.5632 94.1679C49.8866 91.051 34.2354 86.3208 23.2228 81.2016C17.7136 78.6406 13.3883 75.9928 10.551 73.4173C7.69462 70.8246 6.44665 68.4008 6.82212 66.2714C7.1976 64.142 9.19927 62.2913 12.7701 60.8318C16.3172 59.3821 21.2872 58.3733 27.3402 57.851C39.4395 56.8071 55.7646 57.7151 73.4412 60.832Z" stroke="url(#paint9_linear_4349_6701)" stroke-width="0.867953"/>
<path opacity="0.204082" d="M76.5704 61.6991C93.0194 68.0133 107.201 75.5357 116.833 82.5841C121.651 86.1102 125.31 89.5028 127.547 92.5499C129.798 95.616 130.535 98.223 129.758 100.245C128.982 102.268 126.691 103.712 122.966 104.484C119.264 105.252 114.275 105.325 108.335 104.721C96.4613 103.514 80.8886 99.6151 64.4396 93.3009C47.9906 86.9868 33.8088 79.4643 24.1774 72.4159C19.3592 68.8898 15.7005 65.4972 13.463 62.4502C11.2116 59.3841 10.4753 56.777 11.2516 54.7547C12.0278 52.7325 14.3195 51.2878 18.0442 50.5157C21.7459 49.7484 26.7349 49.6754 32.675 50.279C44.5488 51.4857 60.1214 55.3849 76.5704 61.6991Z" stroke="url(#paint10_linear_4349_6701)" stroke-width="0.867953"/>
<path opacity="0.22449" d="M79.474 63.1468C94.1361 72.3086 106.368 82.2403 114.294 90.8817C118.259 95.2048 121.129 99.1862 122.693 102.571C124.266 105.976 124.468 108.661 123.318 110.501C122.168 112.341 119.667 113.337 115.917 113.416C112.189 113.494 107.352 112.66 101.728 110.991C90.4871 107.656 76.1982 101.015 61.5362 91.8533C46.8742 82.6915 34.6418 72.7598 26.7159 64.1184C22.7508 59.7953 19.8809 55.8139 18.3169 52.4287C16.744 49.024 16.5425 46.3393 17.6924 44.499C18.8424 42.6587 21.3436 41.663 25.0933 41.5842C28.8215 41.5059 33.6581 42.34 39.2818 44.0087C50.5232 47.3443 64.812 53.9849 79.474 63.1468Z" stroke="url(#paint11_linear_4349_6701)" stroke-width="0.867953"/>
<path opacity="0.244898" d="M82.0502 65.1215C94.4533 76.6876 104.347 88.5667 110.32 98.4136C113.309 103.34 115.302 107.735 116.148 111.315C116.998 114.913 116.663 117.568 115.18 119.158C113.697 120.748 111.073 121.267 107.424 120.67C103.794 120.076 99.27 118.394 94.1475 115.757C83.9079 110.485 71.3675 101.444 58.9645 89.878C46.5614 78.3119 36.6675 66.4328 30.6943 56.5859C27.7061 51.6599 25.7125 47.2642 24.867 43.6847C24.017 40.0863 24.352 37.4318 25.8347 35.8418C27.3174 34.2519 29.942 33.7325 33.591 34.3294C37.2207 34.9231 41.7447 36.6052 46.8673 39.2426C57.1068 44.5144 69.6472 53.5555 82.0502 65.1215Z" stroke="url(#paint12_linear_4349_6701)" stroke-width="0.867953"/>
<path opacity="0.265306" d="M84.1998 67.5515C93.9741 81.0046 101.244 94.3113 105.101 104.941C107.031 110.259 108.098 114.883 108.21 118.509C108.323 122.152 107.471 124.671 105.709 125.951C103.947 127.231 101.288 127.263 97.8579 126.03C94.4445 124.803 90.3765 122.359 85.9153 118.881C76.9976 111.927 66.5887 100.901 56.8145 87.4481C47.0403 73.9951 39.7705 60.6884 35.9129 50.0584C33.9831 44.7405 32.9161 40.1166 32.804 36.4911C32.6915 32.848 33.5434 30.329 35.3054 29.0488C37.0675 27.7686 39.7264 27.7368 43.1564 28.9696C46.5698 30.1965 50.6378 32.6402 55.099 36.1189C64.0167 43.0725 74.4256 54.0985 84.1998 67.5515Z" stroke="url(#paint13_linear_4349_6701)" stroke-width="0.867953"/>
<path opacity="0.285714" d="M85.8428 70.3469C92.731 85.1186 97.2018 99.2967 98.8691 110.271C99.7032 115.761 99.8316 120.424 99.225 123.949C98.6157 127.489 97.2868 129.774 95.3092 130.696C93.3316 131.618 90.7273 131.167 87.6235 129.358C84.5333 127.557 81.0439 124.462 77.3745 120.294C70.0396 111.963 62.0523 99.4243 55.1642 84.6526C48.276 69.881 43.8052 55.7028 42.1379 44.7287C41.3038 39.2388 41.1754 34.576 41.782 31.051C42.3913 27.5105 43.7202 25.2259 45.6978 24.3038C47.6754 23.3816 50.2797 23.8321 53.3835 25.6411C56.4737 27.4422 59.963 30.5378 63.6325 34.7057C70.9674 43.0369 78.9547 55.5753 85.8428 70.3469Z" stroke="url(#paint14_linear_4349_6701)" stroke-width="0.867953"/>
<path opacity="0.306122" d="M86.9326 73.4054C90.7957 88.8996 92.4068 103.38 91.8976 114.26C91.6429 119.703 90.8585 124.219 89.5767 127.505C88.2897 130.803 86.5424 132.765 84.4212 133.294C82.3 133.823 79.8363 132.911 77.1514 130.603C74.4772 128.304 71.6644 124.684 68.8842 119.998C63.3267 110.631 57.951 97.0887 54.0879 81.5945C50.2248 66.1003 48.6137 51.6199 49.1229 40.7399C49.3776 35.2969 50.162 30.7806 51.4438 27.4951C52.7307 24.1966 54.4781 22.235 56.5993 21.7062C58.7205 21.1773 61.1842 22.0889 63.869 24.3972C66.5433 26.6963 69.3561 30.3157 72.1363 35.002C77.6938 44.3694 83.0694 57.9113 86.9326 73.4054Z" stroke="url(#paint15_linear_4349_6701)" stroke-width="0.867953"/>
<path opacity="0.326531" d="M87.4165 76.6141C88.235 92.231 87.038 106.454 84.4513 116.82C83.1573 122.006 81.5216 126.202 79.6341 129.122C77.74 132.053 75.6489 133.617 73.4616 133.731C71.2743 133.846 69.0311 132.509 66.8411 129.793C64.6588 127.086 62.5934 123.084 60.7644 118.062C57.1084 108.022 54.4312 94.0025 53.6128 78.3857C52.7943 62.7688 53.9913 48.5459 56.578 38.1794C57.872 32.9935 59.5077 28.7975 61.3951 25.8775C63.2892 22.9472 65.3804 21.3833 67.5677 21.2687C69.755 21.154 71.9982 22.4908 74.1882 25.207C76.3705 27.9138 78.4359 31.9158 80.2649 36.9381C83.9209 46.9774 86.5981 60.9973 87.4165 76.6141Z" stroke="url(#paint16_linear_4349_6701)" stroke-width="0.867953"/>
<path opacity="0.346939" d="M87.2657 79.8556C85.1352 95.0146 81.2882 108.452 76.8018 117.919C74.5575 122.656 72.164 126.376 69.7634 128.822C67.3553 131.276 65.0079 132.384 62.8348 132.079C60.6617 131.773 58.7106 130.061 57.0723 127.038C55.439 124.025 54.1636 119.79 53.3117 114.618C51.6088 104.28 51.6145 90.3036 53.745 75.1446C55.8754 59.9855 59.7225 46.5486 64.2089 37.0808C66.4532 32.3445 68.8467 28.6246 71.2473 26.1781C73.6553 23.7241 76.0028 22.6161 78.1759 22.9215C80.349 23.2269 82.3 24.9391 83.9384 27.9617C85.5716 30.9751 86.8471 35.2107 87.699 40.3821C89.4018 50.7198 89.3962 64.6966 87.2657 79.8556Z" stroke="url(#paint17_linear_4349_6701)" stroke-width="0.867953"/>
<path opacity="0.367347" d="M86.5016 83.0101C81.6253 97.1718 75.3826 109.345 69.2434 117.578C66.1722 121.696 63.1421 124.808 60.3393 126.695C57.5291 128.587 55.0223 129.199 52.9435 128.484C50.8646 127.768 49.2665 125.742 48.2167 122.521C47.1696 119.309 46.6977 114.991 46.8133 109.854C47.0442 99.5871 49.6194 86.1513 54.4956 71.9896C59.3719 57.8278 65.6146 45.6548 71.7538 37.4218C74.825 33.3033 77.8552 30.1912 80.6579 28.3046C83.4681 26.413 85.9749 25.8002 88.0538 26.516C90.1326 27.2318 91.7307 29.2581 92.7806 32.4788C93.8277 35.691 94.2995 40.0089 94.184 45.1452C93.953 55.4125 91.3779 68.8484 86.5016 83.0101Z" stroke="url(#paint18_linear_4349_6701)" stroke-width="0.867953"/>
<path opacity="0.387755" d="M85.1646 85.9624C77.8409 98.6474 69.54 109.147 62.0517 115.869C58.3057 119.232 54.7818 121.633 51.7016 122.899C48.6145 124.167 46.0507 124.265 44.143 123.164C42.2352 122.062 41.0386 119.793 40.5933 116.485C40.1489 113.185 40.4663 108.933 41.5058 104.007C43.5837 94.1607 48.5258 81.7224 55.8495 69.0374C63.1732 56.3524 71.4741 45.8532 78.9624 39.1305C82.7084 35.7674 86.2323 33.3664 89.3124 32.1012C92.3995 30.8331 94.9633 30.7345 96.8711 31.836C98.7789 32.9375 99.9754 35.207 100.421 38.5146C100.865 41.8147 100.548 46.067 99.5082 50.9926C97.4303 60.8391 92.4883 73.2774 85.1646 85.9624Z" stroke="url(#paint19_linear_4349_6701)" stroke-width="0.867953"/>
<path opacity="0.408163" d="M83.2747 88.6038C73.8819 99.409 63.9267 107.905 55.4361 112.913C51.1887 115.417 47.3295 117.036 44.1049 117.646C40.8743 118.256 38.3572 117.842 36.6914 116.394C35.0256 114.946 34.265 112.511 34.4199 109.227C34.5746 105.948 35.6404 101.902 37.5297 97.3469C41.3065 88.2421 48.3348 77.2013 57.7276 66.3961C67.1204 55.5909 77.0756 47.0944 85.5662 42.0872C89.8136 39.5824 93.6728 37.9637 96.8974 37.3544C100.128 36.7439 102.645 37.1582 104.311 38.6062C105.977 40.0543 106.737 42.4893 106.582 45.7734C106.428 49.0514 105.362 53.0984 103.473 57.653C99.6958 66.7578 92.6675 77.7986 83.2747 88.6038Z" stroke="url(#paint20_linear_4349_6701)" stroke-width="0.867953"/>
<path opacity="0.428571" d="M80.9283 90.8372C69.9067 99.4482 58.7493 105.705 49.6307 108.867C45.0693 110.449 41.0416 111.248 37.8082 111.194C34.57 111.141 32.2003 110.236 30.8387 108.493C29.4771 106.75 29.1724 104.232 29.9038 101.077C30.6341 97.9269 32.3839 94.2122 35.0222 90.169C40.2964 82.0862 49.0664 72.7739 60.088 64.1629C71.1096 55.5519 82.267 49.2952 91.3856 46.133C95.947 44.5512 99.9747 43.7521 103.208 43.8056C106.446 43.8593 108.816 44.7641 110.178 46.5068C111.539 48.2496 111.844 50.7678 111.112 53.9228C110.382 57.0731 108.632 60.7878 105.994 64.8311C100.72 72.9138 91.9499 82.2262 80.9283 90.8372Z" stroke="url(#paint21_linear_4349_6701)" stroke-width="0.867953"/>
<path opacity="0.44898" d="M78.1941 92.5802C66.0264 98.78 54.147 102.657 44.7863 103.923C40.1039 104.557 36.0762 104.534 32.9666 103.838C29.8536 103.141 27.7252 101.787 26.7192 99.8125C25.7132 97.8381 25.8689 95.3205 27.135 92.3924C28.3997 89.4676 30.7483 86.1955 34.0131 82.7796C40.5396 75.951 50.6587 68.6193 62.8265 62.4195C74.9942 56.2198 86.8735 52.3427 96.2342 51.0764C100.917 50.4429 104.944 50.4662 108.054 51.1622C111.167 51.859 113.295 53.2129 114.301 55.1872C115.307 57.1616 115.152 59.6793 113.886 62.6074C112.621 65.5322 110.272 68.8043 107.007 72.2201C100.481 79.0488 90.3618 86.3805 78.1941 92.5802Z" stroke="url(#paint22_linear_4349_6701)" stroke-width="0.867953"/>
<path opacity="0.469388" d="M75.1698 93.7691C62.3604 97.4422 50.2474 98.899 41.0259 98.297C36.4132 97.9958 32.5485 97.1811 29.6871 95.8889C26.8234 94.5957 25.0199 92.852 24.4079 90.7177C23.7959 88.5834 24.4014 86.149 26.1446 83.5348C27.8865 80.9226 30.7322 78.1836 34.4844 75.4839C41.9857 70.0867 53.03 64.9033 65.8394 61.2303C78.6488 57.5572 90.7617 56.1004 99.9832 56.7024C104.596 57.0035 108.461 57.8183 111.322 59.1105C114.186 60.4037 115.989 62.1474 116.601 64.2817C117.213 66.416 116.608 68.8504 114.865 71.4646C113.123 74.0768 110.277 76.8157 106.525 79.5155C99.0235 84.9127 87.9792 90.0961 75.1698 93.7691Z" stroke="url(#paint23_linear_4349_6701)" stroke-width="0.867953"/>
<path opacity="0.489796" d="M71.9757 94.3605C59.03 95.4931 47.1601 94.586 38.4392 92.2175C34.077 91.0328 30.5262 89.4887 28.024 87.67C25.5206 85.8506 24.1114 83.7916 23.9175 81.5753C23.7236 79.359 24.7539 77.0866 26.9032 74.8601C29.0516 72.6345 32.2804 70.4973 36.3706 68.5731C44.5477 64.7262 56.0798 61.7717 69.0254 60.6391C81.971 59.5065 93.8409 60.4136 102.562 62.7821C106.924 63.9668 110.475 65.5109 112.977 67.3296C115.48 69.1491 116.89 71.2081 117.084 73.4243C117.277 75.6406 116.247 77.913 114.098 80.1396C111.949 82.3651 108.721 84.5023 104.63 86.4266C96.4533 90.2734 84.9213 93.2279 71.9757 94.3605Z" stroke="url(#paint24_linear_4349_6701)" stroke-width="0.867953"/>
<path opacity="0.510204" d="M68.7396 94.3325C56.1445 93.0087 44.9637 89.8851 37.0707 85.9197C33.1228 83.9363 30.0188 81.753 27.9694 79.4976C25.9196 77.2419 24.9579 74.954 25.1909 72.7371C25.4239 70.5201 26.8403 68.4822 29.3143 66.7019C31.7879 64.9219 35.2779 63.4317 39.552 62.3124C48.0969 60.0748 59.6829 59.344 72.2779 60.6678C84.873 61.9916 96.0538 65.1153 103.947 69.0806C107.895 71.064 110.999 73.2473 113.048 75.5027C115.098 77.7584 116.06 80.0463 115.827 82.2633C115.594 84.4803 114.177 86.5182 111.703 88.2984C109.23 90.0784 105.74 91.5687 101.466 92.6879C92.9206 94.9256 81.3347 95.6563 68.7396 94.3325Z" stroke="url(#paint25_linear_4349_6701)" stroke-width="0.867953"/>
<path opacity="0.530612" d="M65.5605 93.6855C53.7656 90.0794 43.6727 84.9677 36.8887 79.6336C33.4955 76.9657 30.9487 74.2566 29.4244 71.6702C27.9004 69.0841 27.4207 66.6623 28.0737 64.5262C28.7268 62.3901 30.4787 60.6506 33.1884 59.3589C35.8984 58.067 39.5246 57.2453 43.8296 56.9309C52.4366 56.3023 63.6625 57.7084 75.4573 61.3144C87.2521 64.9204 97.345 70.0322 104.129 75.3663C107.522 78.0342 110.069 80.7433 111.593 83.3297C113.117 85.9158 113.597 88.3376 112.944 90.4737C112.291 92.6097 110.539 94.3493 107.829 95.641C105.119 96.9329 101.493 97.7546 97.1881 98.069C88.5812 98.6976 77.3553 97.2915 65.5605 93.6855Z" stroke="url(#paint26_linear_4349_6701)" stroke-width="0.867953"/>
<path opacity="0.55102" d="M62.5592 92.4438C51.9612 86.8088 43.2936 80.0061 37.8432 73.5785C35.1171 70.3637 33.2109 67.2604 32.2607 64.4597C31.3108 61.6601 31.328 59.204 32.3788 57.2278C33.4296 55.2516 35.4562 53.8639 38.3083 53.0858C41.1615 52.3075 44.8002 52.1524 48.9898 52.6147C57.3663 53.539 67.8529 56.9209 78.4509 62.5559C89.0489 68.191 97.7166 74.9936 103.167 81.4212C105.893 84.636 107.799 87.7394 108.749 90.54C109.699 93.3396 109.682 95.7958 108.631 97.772C107.581 99.7482 105.554 101.136 102.702 101.914C99.8486 102.692 96.2099 102.847 92.0203 102.385C83.6438 101.461 73.1572 98.0789 62.5592 92.4438Z" stroke="url(#paint27_linear_4349_6701)" stroke-width="0.867953"/>
<path opacity="0.571429" d="M59.8528 90.6532C50.7819 83.3077 43.8042 75.1651 39.8484 67.9532C37.87 64.3462 36.6583 60.992 36.306 58.1C35.9538 55.2098 36.4626 52.8194 37.874 51.0765C39.2853 49.3336 41.5177 48.339 44.4179 48.0825C47.32 47.8259 50.8528 48.3137 54.7923 49.499C62.6691 51.8689 72.0845 57.0012 81.1554 64.3467C90.2264 71.6922 97.2041 79.8348 101.16 87.0467C103.138 90.6536 104.35 94.0079 104.702 96.8999C105.054 99.7901 104.546 102.18 103.134 103.923C101.723 105.666 99.4906 106.661 96.5904 106.917C93.6883 107.174 90.1554 106.686 86.216 105.501C78.3392 103.131 68.9238 97.9987 59.8528 90.6532Z" stroke="url(#paint28_linear_4349_6701)" stroke-width="0.867953"/>
<path opacity="0.591837" d="M57.5433 88.3791C50.2533 79.6912 45.1499 70.5967 42.7815 62.9297C41.597 59.0953 41.1032 55.6391 41.3468 52.7796C41.5903 49.9224 42.5654 47.6945 44.2869 46.25C46.0084 44.8055 48.3718 44.232 51.2278 44.4884C54.0862 44.745 57.4042 45.8315 60.9746 47.6639C68.1139 51.3276 76.184 57.9327 83.474 66.6206C90.764 75.3085 95.8674 84.403 98.2358 92.07C99.4203 95.9044 99.9141 99.3606 99.6705 102.22C99.427 105.077 98.4519 107.305 96.7304 108.75C95.0089 110.194 92.6455 110.768 89.7895 110.511C86.9311 110.255 83.6131 109.168 80.0426 107.336C72.9034 103.672 64.8333 97.067 57.5433 88.3791Z" stroke="url(#paint29_linear_4349_6701)" stroke-width="0.867953"/>
<path opacity="0.612245" d="M55.7045 85.7054C50.3667 76.0756 47.2374 66.437 46.4795 58.6496C46.1005 54.7551 46.3167 51.345 47.1297 48.6374C47.9418 45.9324 49.3394 43.9564 51.3089 42.8647C53.2784 41.773 55.6947 41.6348 58.4191 42.3795C61.1461 43.125 64.1526 44.7487 67.2544 47.1338C73.457 51.9032 79.9727 59.6647 85.3105 69.2945C90.6484 78.9242 93.7777 88.5628 94.5355 96.3503C94.9145 100.245 94.6983 103.655 93.8854 106.362C93.0733 109.067 91.6757 111.043 89.7062 112.135C87.7367 113.227 85.3203 113.365 82.596 112.62C79.869 111.875 76.8625 110.251 73.7606 107.866C67.5581 103.097 61.0424 95.3351 55.7045 85.7054Z" stroke="url(#paint30_linear_4349_6701)" stroke-width="0.867953"/>
<path opacity="0.632653" d="M54.4075 82.7299C51.1074 72.5735 49.967 62.8003 50.7747 55.2184C51.1787 51.4269 52.0676 48.2041 53.3998 45.7585C54.7305 43.3156 56.4898 41.6699 58.6358 40.9727C60.7818 40.2754 63.1724 40.5726 65.6848 41.7668C68.2001 42.9623 70.8136 45.0472 73.369 47.8771C78.479 53.5362 83.3009 62.1132 86.6009 72.2697C89.9009 82.4261 91.0414 92.1993 90.2336 99.7812C89.8297 103.573 88.9408 106.795 87.6086 109.241C86.2779 111.684 84.5185 113.33 82.3726 114.027C80.2266 114.724 77.836 114.427 75.3235 113.233C72.8082 112.037 70.1948 109.952 67.6394 107.122C62.5294 101.463 57.7075 92.8864 54.4075 82.7299Z" stroke="url(#paint31_linear_4349_6701)" stroke-width="0.867953"/>
<path opacity="0.653061" d="M53.7107 79.5625C52.4496 69.2917 53.231 59.7784 55.4955 52.7057C57.7725 45.5943 61.4861 41.1148 65.9745 40.5637C70.4628 40.0126 75.1499 43.4606 79.0796 49.81C82.9879 56.1247 86.0475 65.1664 87.3086 75.4372C88.5697 85.708 87.7884 95.2213 85.5238 102.294C83.2469 109.405 79.5332 113.885 75.0448 114.436C70.5565 114.987 65.8695 111.539 61.9397 105.19C58.0314 98.875 54.9718 89.8332 53.7107 79.5625Z" stroke="url(#paint32_linear_4349_6701)" stroke-width="0.867953"/>
<path opacity="0.673469" d="M53.6277 76.3193C54.3264 66.3271 56.887 57.437 60.4427 51.1431C64.016 44.8179 68.5057 41.2517 73.0242 41.5676C77.5426 41.8836 81.4924 46.0399 84.1506 52.8009C86.7957 59.5285 88.0941 68.6884 87.3954 78.6806C86.6967 88.6727 84.136 97.5628 80.5804 103.857C77.0071 110.182 72.5173 113.748 67.9989 113.432C63.4805 113.116 59.5307 108.96 56.8725 102.199C54.2274 95.4714 52.929 86.3115 53.6277 76.3193Z" stroke="url(#paint33_linear_4349_6701)" stroke-width="0.867953"/>
<path opacity="0.693878" d="M54.1611 73.1195C56.6677 63.7644 60.7993 55.8161 65.4326 50.5256C70.0864 45.2117 75.1407 42.6858 79.5232 43.8601C83.9057 45.0344 87.0199 49.7491 88.3933 56.6779C89.7607 63.5763 89.3645 72.5255 86.8578 81.8806C84.3511 91.2357 80.2196 99.184 75.5863 104.474C70.9325 109.788 65.8781 112.314 61.4956 111.14C57.1131 109.966 53.9989 105.251 52.6255 98.3222C51.2582 91.4238 51.6544 82.4746 54.1611 73.1195Z" stroke="url(#paint34_linear_4349_6701)" stroke-width="0.867953"/>
<path opacity="0.714286" d="M55.2957 70.0804C59.396 61.6735 64.8358 54.9292 70.2966 50.8144C75.7785 46.6837 81.1667 45.2782 85.2517 47.2705C89.3366 49.2629 91.5464 54.3742 91.6664 61.2371C91.7858 68.0735 89.8203 76.5125 85.72 84.9193C81.6197 93.3261 76.1799 100.071 70.7192 104.185C65.2372 108.316 59.849 109.721 55.7641 107.729C51.6791 105.737 49.4693 100.625 49.3494 93.7625C49.2299 86.9261 51.1954 78.4872 55.2957 70.0804Z" stroke="url(#paint35_linear_4349_6701)" stroke-width="0.867953"/>
<path opacity="0.734694" d="M56.9917 67.314C62.4211 60.109 68.8664 54.7659 74.8795 51.941C80.9128 49.1066 86.3952 48.8522 90.0314 51.5922C93.6676 54.3323 94.9342 59.6725 93.8726 66.2533C92.8146 72.8121 89.455 80.4805 84.0257 87.6855C78.5963 94.8905 72.151 100.234 66.1379 103.059C60.1046 105.893 54.6222 106.147 50.986 103.407C47.3498 100.667 46.0832 95.3271 47.1448 88.7462C48.2028 82.1874 51.5624 74.519 56.9917 67.314Z" stroke="url(#paint36_linear_4349_6701)" stroke-width="0.867953"/>
<path opacity="0.755102" d="M59.1835 64.9224C65.6412 59.1079 72.7636 55.2932 79.0423 53.8113C85.3389 52.3252 90.677 53.2026 93.7291 56.5924C96.7813 59.9821 97.0959 65.3827 94.9598 71.4894C92.8297 77.5789 88.2914 84.2635 81.8337 90.078C75.376 95.8925 68.2536 99.7073 61.9749 101.189C55.6784 102.675 50.3402 101.798 47.2881 98.4081C44.236 95.0184 43.9213 89.6177 46.0574 83.5111C48.1875 77.4216 52.7259 70.737 59.1835 64.9224Z" stroke="url(#paint37_linear_4349_6701)" stroke-width="0.867953"/>
<path opacity="0.77551" d="M61.7889 62.9922C68.9526 58.6878 76.4137 56.456 82.6725 56.3093C88.9458 56.1622 93.9126 58.1043 96.2663 62.0214C98.6199 65.9386 98.0029 71.2358 94.9279 76.7057C91.8601 82.163 86.3867 87.703 79.223 92.0074C72.0593 96.3118 64.5982 98.5436 58.3394 98.6903C52.0661 98.8374 47.0993 96.8953 44.7456 92.9782C42.392 89.0611 43.009 83.7638 46.084 78.2939C49.1519 72.8366 54.6252 67.2966 61.7889 62.9922Z" stroke="url(#paint38_linear_4349_6701)" stroke-width="0.867953"/>
<path opacity="0.795918" d="M64.715 61.5955C72.256 58.8508 79.7228 58.1853 85.6897 59.3074C91.6674 60.4316 96.0567 63.3269 97.6227 67.6293C99.1887 71.9318 97.6873 76.9711 93.8307 81.6747C89.9811 86.3697 83.8334 90.6595 76.2924 93.4042C68.7514 96.1489 61.2846 96.8144 55.3177 95.6922C49.34 94.5681 44.9507 91.6728 43.3847 87.3703C41.8188 83.0679 43.3201 78.0286 47.1767 73.325C51.0263 68.63 57.174 64.3402 64.715 61.5955Z" stroke="url(#paint39_linear_4349_6701)" stroke-width="0.867953"/>
<path opacity="0.816327" d="M67.8637 60.7833C75.4612 59.58 82.6204 60.3971 88.0487 62.6685C93.4844 64.9429 97.1191 68.6411 97.8367 73.1721C98.5544 77.7031 96.2403 82.3434 91.7736 86.1863C87.3128 90.024 80.7565 93.0134 73.159 94.2167C65.5615 95.42 58.4023 94.6029 52.974 92.3315C47.5383 90.0571 43.9036 86.3589 43.186 81.8279C42.4683 77.2969 44.7824 72.6566 49.2492 68.8137C53.7099 64.976 60.2662 61.9866 67.8637 60.7833Z" stroke="url(#paint40_linear_4349_6701)" stroke-width="0.867953"/>
<path opacity="0.836735" d="M71.0944 60.5852C78.4491 60.842 85.0201 62.9979 89.6985 66.253C94.3813 69.511 97.1206 73.8301 96.9602 78.4238C96.7998 83.0176 93.7658 87.135 88.8672 90.0585C83.9731 92.9793 77.2677 94.6716 69.9131 94.4147C62.5585 94.1579 55.9875 92.002 51.309 88.747C46.6263 85.4889 43.8869 81.1699 44.0473 76.5761C44.2078 71.9823 47.2417 67.8649 52.1404 64.9414C57.0344 62.0207 63.7398 60.3284 71.0944 60.5852Z" stroke="url(#paint41_linear_4349_6701)" stroke-width="0.867953"/>
<path opacity="0.857143" d="M74.31 61.0088C81.1556 62.5892 86.9016 65.8896 90.6623 69.9258C94.4251 73.9643 96.17 78.6988 95.1339 83.1866C94.0978 87.6744 90.4541 91.1649 85.3017 93.1451C80.1522 95.1242 73.541 95.5718 66.6954 93.9913C59.8498 92.4109 54.1039 89.1105 50.3431 85.0743C46.5803 81.0358 44.8354 76.3013 45.8715 71.8135C46.9076 67.3257 50.5513 63.8352 55.7037 61.855C60.8532 59.8759 67.4644 59.4283 74.31 61.0088Z" stroke="url(#paint42_linear_4349_6701)" stroke-width="0.867953"/>
<path opacity="0.877551" d="M77.3835 62.0379C83.4967 64.7597 88.2331 68.9712 90.9579 73.5599C93.6835 78.1496 94.38 83.08 92.5028 87.2963C90.6256 91.5126 86.4955 94.294 81.2609 95.3397C76.0276 96.3852 69.7286 95.6834 63.6154 92.9616C57.5022 90.2398 52.7658 86.0283 50.041 81.4397C47.3154 76.8499 46.6189 71.9195 48.4961 67.7032C50.3733 63.4869 54.5034 60.7055 59.738 59.6598C64.9713 58.6144 71.2703 59.3162 77.3835 62.0379Z" stroke="url(#paint43_linear_4349_6701)" stroke-width="0.867953"/>
<path opacity="0.897959" d="M80.2152 63.636C85.4228 67.2824 89.0233 72.1452 90.6471 77.0426C92.2709 81.94 91.9123 86.8422 89.2596 90.6307C86.6069 94.4192 82.1229 96.4328 76.9655 96.5819C71.8081 96.7311 66.0071 95.0109 60.7995 91.3645C55.5919 87.718 51.9914 82.8553 50.3676 77.9579C48.7438 73.0605 49.1024 68.1583 51.7551 64.3698C54.4078 60.5813 58.8917 58.5677 64.0492 58.4185C69.2066 58.2694 75.0076 59.9896 80.2152 63.636Z" stroke="url(#paint44_linear_4349_6701)" stroke-width="0.867953"/>
<path opacity="0.918367" d="M82.6827 65.7427C91.0797 74.4381 92.2387 86.6795 85.581 93.1087C78.9234 99.5378 66.73 97.9524 58.3329 89.257C49.9358 80.5616 48.7769 68.3202 55.4345 61.891C62.0921 55.4618 74.2856 57.0473 82.6827 65.7427Z" stroke="url(#paint45_linear_4349_6701)" stroke-width="0.867953"/>
<path opacity="0.938776" d="M84.6965 68.2818C90.9079 77.8465 89.4486 89.6457 81.67 94.6971C73.8915 99.7486 62.5188 96.2826 56.3074 86.7179C50.0961 77.1533 51.5554 65.3541 59.3339 60.3026C67.1125 55.2512 78.4852 58.7172 84.6965 68.2818Z" stroke="url(#paint46_linear_4349_6701)" stroke-width="0.867953"/>
<path opacity="0.959184" d="M86.1971 71.1596C90.2128 81.0989 86.3585 91.923 77.7388 95.4056C69.1191 98.8882 58.8275 93.7794 54.8118 83.8401C50.796 73.9008 54.6504 63.0767 63.2701 59.5941C71.8897 56.1116 82.1813 61.2203 86.1971 71.1596Z" stroke="url(#paint47_linear_4349_6701)" stroke-width="0.867953"/>
<path opacity="0.979592" d="M87.1178 74.2702C89.0324 84.1201 83.1103 93.5068 73.9609 95.2853C64.8114 97.0638 55.8042 90.579 53.8896 80.7292C51.975 70.8793 57.897 61.4926 67.0465 59.7141C76.196 57.9356 85.2032 64.4204 87.1178 74.2702Z" stroke="url(#paint48_linear_4349_6701)" stroke-width="0.867953"/>
<circle cx="70.5051" cy="77.4999" r="16.9251" stroke="url(#paint49_linear_4349_6701)" stroke-width="0.867953"/>
</g>
<defs>
<filter id="filter0_i_4349_6701" x="4.22925" y="1.67346" width="132.561" height="155.653" filterUnits="userSpaceOnUse" color-interpolation-filters="sRGB">
<feFlood flood-opacity="0" result="BackgroundImageFix"/>
<feBlend mode="normal" in="SourceGraphic" in2="BackgroundImageFix" result="shape"/>
<feColorMatrix in="SourceAlpha" type="matrix" values="0 0 0 0 0 0 0 0 0 0 0 0 0 0 0 0 0 0 127 0" result="hardAlpha"/>
<feOffset dy="4"/>
<feGaussianBlur stdDeviation="2"/>
<feComposite in2="hardAlpha" operator="arithmetic" k2="-1" k3="1"/>
<feColorMatrix type="matrix" values="0 0 0 0 0 0 0 0 0 0 0 0 0 0 0 0 0 0 0.1 0"/>
<feBlend mode="normal" in2="shape" result="effect1_innerShadow_4349_6701"/>
</filter>
<linearGradient id="paint0_linear_4349_6701" x1="69.1827" y1="153.326" x2="71.929" y2="-4.01284" gradientUnits="userSpaceOnUse">
<stop stop-color="#929292"/>
<stop offset="1" stop-color="#9C9C9C"/>
</linearGradient>
<linearGradient id="paint1_linear_4349_6701" x1="54.9956" y1="150.513" x2="87.1983" y2="-0.988722" gradientUnits="userSpaceOnUse">
<stop stop-color="#929292"/>
<stop offset="1" stop-color="#9C9C9C"/>
</linearGradient>
<linearGradient id="paint2_linear_4349_6701" x1="41.8026" y1="145.111" x2="101.354" y2="4.81752" gradientUnits="userSpaceOnUse">
<stop stop-color="#929292"/>
<stop offset="1" stop-color="#9C9C9C"/>
</linearGradient>
<linearGradient id="paint3_linear_4349_6701" x1="30.1055" y1="137.404" x2="113.947" y2="13.1034" gradientUnits="userSpaceOnUse">
<stop stop-color="#929292"/>
<stop offset="1" stop-color="#9C9C9C"/>
</linearGradient>
<linearGradient id="paint4_linear_4349_6701" x1="20.2583" y1="127.749" x2="124.526" y2="23.4816" gradientUnits="userSpaceOnUse">
<stop stop-color="#929292"/>
<stop offset="1" stop-color="#9C9C9C"/>
</linearGradient>
<linearGradient id="paint5_linear_4349_6701" x1="12.5783" y1="116.571" x2="132.773" y2="35.4986" gradientUnits="userSpaceOnUse">
<stop stop-color="#929292"/>
<stop offset="1" stop-color="#9C9C9C"/>
</linearGradient>
<linearGradient id="paint6_linear_4349_6701" x1="7.28271" y1="104.334" x2="138.459" y2="48.6533" gradientUnits="userSpaceOnUse">
<stop stop-color="#929292"/>
<stop offset="1" stop-color="#9C9C9C"/>
</linearGradient>
<linearGradient id="paint7_linear_4349_6701" x1="4.49949" y1="91.5304" x2="141.467" y2="62.417" gradientUnits="userSpaceOnUse">
<stop stop-color="#929292"/>
<stop offset="1" stop-color="#9C9C9C"/>
</linearGradient>
<linearGradient id="paint8_linear_4349_6701" x1="4.23" y1="78.6569" x2="141.761" y2="76.2563" gradientUnits="userSpaceOnUse">
<stop stop-color="#929292"/>
<stop offset="1" stop-color="#9C9C9C"/>
</linearGradient>
<linearGradient id="paint9_linear_4349_6701" x1="6.39474" y1="66.1961" x2="139.418" y2="89.6516" gradientUnits="userSpaceOnUse">
<stop stop-color="#929292"/>
<stop offset="1" stop-color="#9C9C9C"/>
</linearGradient>
<linearGradient id="paint10_linear_4349_6701" x1="10.8464" y1="54.5992" x2="134.638" y2="102.118" gradientUnits="userSpaceOnUse">
<stop stop-color="#929292"/>
<stop offset="1" stop-color="#9C9C9C"/>
</linearGradient>
<linearGradient id="paint11_linear_4349_6701" x1="17.3244" y1="44.269" x2="127.674" y2="113.223" gradientUnits="userSpaceOnUse">
<stop stop-color="#929292"/>
<stop offset="1" stop-color="#9C9C9C"/>
</linearGradient>
<linearGradient id="paint12_linear_4349_6701" x1="25.5173" y1="35.5458" x2="118.872" y2="122.6" gradientUnits="userSpaceOnUse">
<stop stop-color="#929292"/>
<stop offset="1" stop-color="#9C9C9C"/>
</linearGradient>
<linearGradient id="paint13_linear_4349_6701" x1="35.0504" y1="28.6977" x2="108.623" y2="129.962" gradientUnits="userSpaceOnUse">
<stop stop-color="#929292"/>
<stop offset="1" stop-color="#9C9C9C"/>
</linearGradient>
<linearGradient id="paint14_linear_4349_6701" x1="45.5144" y1="23.9105" x2="97.3668" y2="135.108" gradientUnits="userSpaceOnUse">
<stop stop-color="#929292"/>
<stop offset="1" stop-color="#9C9C9C"/>
</linearGradient>
<linearGradient id="paint15_linear_4349_6701" x1="56.4943" y1="21.2851" x2="85.5774" y2="137.931" gradientUnits="userSpaceOnUse">
<stop stop-color="#929292"/>
<stop offset="1" stop-color="#9C9C9C"/>
</linearGradient>
<linearGradient id="paint16_linear_4349_6701" x1="67.545" y1="20.8353" x2="73.707" y2="138.414" gradientUnits="userSpaceOnUse">
<stop stop-color="#929292"/>
<stop offset="1" stop-color="#9C9C9C"/>
</linearGradient>
<linearGradient id="paint17_linear_4349_6701" x1="78.2363" y1="22.4917" x2="62.1946" y2="136.634" gradientUnits="userSpaceOnUse">
<stop stop-color="#929292"/>
<stop offset="1" stop-color="#9C9C9C"/>
</linearGradient>
<linearGradient id="paint18_linear_4349_6701" x1="88.195" y1="26.1057" x2="51.475" y2="132.749" gradientUnits="userSpaceOnUse">
<stop stop-color="#929292"/>
<stop offset="1" stop-color="#9C9C9C"/>
</linearGradient>
<linearGradient id="paint19_linear_4349_6701" x1="97.0881" y1="31.4602" x2="41.9324" y2="126.993" gradientUnits="userSpaceOnUse">
<stop stop-color="#929292"/>
<stop offset="1" stop-color="#9C9C9C"/>
</linearGradient>
<linearGradient id="paint20_linear_4349_6701" x1="104.596" y1="38.2787" x2="33.8496" y2="119.663" gradientUnits="userSpaceOnUse">
<stop stop-color="#929292"/>
<stop offset="1" stop-color="#9C9C9C"/>
</linearGradient>
<linearGradient id="paint21_linear_4349_6701" x1="110.52" y1="46.2397" x2="27.4959" y2="111.105" gradientUnits="userSpaceOnUse">
<stop stop-color="#929292"/>
<stop offset="1" stop-color="#9C9C9C"/>
</linearGradient>
<linearGradient id="paint22_linear_4349_6701" x1="114.688" y1="54.9902" x2="23.0193" y2="101.698" gradientUnits="userSpaceOnUse">
<stop stop-color="#929292"/>
<stop offset="1" stop-color="#9C9C9C"/>
</linearGradient>
<linearGradient id="paint23_linear_4349_6701" x1="117.018" y1="64.1621" x2="20.5022" y2="91.8377" gradientUnits="userSpaceOnUse">
<stop stop-color="#929292"/>
<stop offset="1" stop-color="#9C9C9C"/>
</linearGradient>
<linearGradient id="paint24_linear_4349_6701" x1="117.516" y1="73.3865" x2="19.9591" y2="81.9216" gradientUnits="userSpaceOnUse">
<stop stop-color="#929292"/>
<stop offset="1" stop-color="#9C9C9C"/>
</linearGradient>
<linearGradient id="paint25_linear_4349_6701" x1="116.258" y1="82.3086" x2="21.3281" y2="72.3311" gradientUnits="userSpaceOnUse">
<stop stop-color="#929292"/>
<stop offset="1" stop-color="#9C9C9C"/>
</linearGradient>
<linearGradient id="paint26_linear_4349_6701" x1="113.359" y1="90.6005" x2="24.445" y2="63.4168" gradientUnits="userSpaceOnUse">
<stop stop-color="#929292"/>
<stop offset="1" stop-color="#9C9C9C"/>
</linearGradient>
<linearGradient id="paint27_linear_4349_6701" x1="109.014" y1="97.9757" x2="29.1074" y2="55.4884" gradientUnits="userSpaceOnUse">
<stop stop-color="#929292"/>
<stop offset="1" stop-color="#9C9C9C"/>
</linearGradient>
<linearGradient id="paint28_linear_4349_6701" x1="103.472" y1="104.196" x2="35.0641" y2="48.8012" gradientUnits="userSpaceOnUse">
<stop stop-color="#929292"/>
<stop offset="1" stop-color="#9C9C9C"/>
</linearGradient>
<linearGradient id="paint29_linear_4349_6701" x1="97.0093" y1="109.082" x2="42.0204" y2="43.5489" gradientUnits="userSpaceOnUse">
<stop stop-color="#929292"/>
<stop offset="1" stop-color="#9C9C9C"/>
</linearGradient>
<linearGradient id="paint30_linear_4349_6701" x1="89.9166" y1="112.515" x2="49.6428" y2="39.859" gradientUnits="userSpaceOnUse">
<stop stop-color="#929292"/>
<stop offset="1" stop-color="#9C9C9C"/>
</linearGradient>
<linearGradient id="paint31_linear_4349_6701" x1="82.5067" y1="114.44" x2="57.6015" y2="37.7895" gradientUnits="userSpaceOnUse">
<stop stop-color="#929292"/>
<stop offset="1" stop-color="#9C9C9C"/>
</linearGradient>
<linearGradient id="paint32_linear_4349_6701" x1="75.0977" y1="114.867" x2="65.5775" y2="37.3305" gradientUnits="userSpaceOnUse">
<stop stop-color="#929292"/>
<stop offset="1" stop-color="#9C9C9C"/>
</linearGradient>
<linearGradient id="paint33_linear_4349_6701" x1="67.9686" y1="113.865" x2="73.2452" y2="38.4073" gradientUnits="userSpaceOnUse">
<stop stop-color="#929292"/>
<stop offset="1" stop-color="#9C9C9C"/>
</linearGradient>
<linearGradient id="paint34_linear_4349_6701" x1="61.3833" y1="111.559" x2="80.32" y2="40.8865" gradientUnits="userSpaceOnUse">
<stop stop-color="#929292"/>
<stop offset="1" stop-color="#9C9C9C"/>
</linearGradient>
<linearGradient id="paint35_linear_4349_6701" x1="55.5738" y1="108.119" x2="86.562" y2="44.584" gradientUnits="userSpaceOnUse">
<stop stop-color="#929292"/>
<stop offset="1" stop-color="#9C9C9C"/>
</linearGradient>
<linearGradient id="paint36_linear_4349_6701" x1="50.7248" y1="103.754" x2="91.7764" y2="49.2766" gradientUnits="userSpaceOnUse">
<stop stop-color="#929292"/>
<stop offset="1" stop-color="#9C9C9C"/>
</linearGradient>
<linearGradient id="paint37_linear_4349_6701" x1="46.9656" y1="98.6985" x2="95.8174" y2="54.7121" gradientUnits="userSpaceOnUse">
<stop stop-color="#929292"/>
<stop offset="1" stop-color="#9C9C9C"/>
</linearGradient>
<linearGradient id="paint38_linear_4349_6701" x1="44.3736" y1="93.2017" x2="98.5982" y2="60.6203" gradientUnits="userSpaceOnUse">
<stop stop-color="#929292"/>
<stop offset="1" stop-color="#9C9C9C"/>
</linearGradient>
<linearGradient id="paint39_linear_4349_6701" x1="42.9769" y1="87.5188" x2="100.095" y2="66.7295" gradientUnits="userSpaceOnUse">
<stop stop-color="#929292"/>
<stop offset="1" stop-color="#9C9C9C"/>
</linearGradient>
<linearGradient id="paint40_linear_4349_6701" x1="42.7573" y1="81.8958" x2="100.347" y2="72.7745" gradientUnits="userSpaceOnUse">
<stop stop-color="#929292"/>
<stop offset="1" stop-color="#9C9C9C"/>
</linearGradient>
<linearGradient id="paint41_linear_4349_6701" x1="43.6136" y1="76.5609" x2="99.4107" y2="78.5094" gradientUnits="userSpaceOnUse">
<stop stop-color="#929292"/>
<stop offset="1" stop-color="#9C9C9C"/>
</linearGradient>
<linearGradient id="paint42_linear_4349_6701" x1="45.4486" y1="71.7159" x2="97.4358" y2="83.7181" gradientUnits="userSpaceOnUse">
<stop stop-color="#929292"/>
<stop offset="1" stop-color="#9C9C9C"/>
</linearGradient>
<linearGradient id="paint43_linear_4349_6701" x1="48.0996" y1="67.5267" x2="94.5793" y2="88.2208" gradientUnits="userSpaceOnUse">
<stop stop-color="#929292"/>
<stop offset="1" stop-color="#9C9C9C"/>
</linearGradient>
<linearGradient id="paint44_linear_4349_6701" x1="51.3996" y1="64.1209" x2="91.0481" y2="91.8831" gradientUnits="userSpaceOnUse">
<stop stop-color="#929292"/>
<stop offset="1" stop-color="#9C9C9C"/>
</linearGradient>
<linearGradient id="paint45_linear_4349_6701" x1="55.1331" y1="61.5788" x2="87.0356" y2="94.6149" gradientUnits="userSpaceOnUse">
<stop stop-color="#929292"/>
<stop offset="1" stop-color="#9C9C9C"/>
</linearGradient>
<linearGradient id="paint46_linear_4349_6701" x1="59.0976" y1="59.9386" x2="82.7617" y2="96.3782" gradientUnits="userSpaceOnUse">
<stop stop-color="#929292"/>
<stop offset="1" stop-color="#9C9C9C"/>
</linearGradient>
<linearGradient id="paint47_linear_4349_6701" x1="63.1075" y1="59.1918" x2="78.4562" y2="97.1811" gradientUnits="userSpaceOnUse">
<stop stop-color="#929292"/>
<stop offset="1" stop-color="#9C9C9C"/>
</linearGradient>
<linearGradient id="paint48_linear_4349_6701" x1="66.9637" y1="59.2881" x2="74.3092" y2="97.0772" gradientUnits="userSpaceOnUse">
<stop stop-color="#929292"/>
<stop offset="1" stop-color="#9C9C9C"/>
</linearGradient>
<linearGradient id="paint49_linear_4349_6701" x1="70.505" y1="60.1409" x2="70.505" y2="96.1609" gradientUnits="userSpaceOnUse">
<stop stop-color="#929292"/>
<stop offset="1" stop-color="#9C9C9C"/>
</linearGradient>
</defs>
</svg>
