<svg width="25" height="25" viewBox="0 0 25 25" fill="none" xmlns="http://www.w3.org/2000/svg">
<path d="M21.9 8.00005C22.7 8.80005 22.7 10.1 21.9 10.8L19.1 13.6L11.3 5.80005L14.1 3.00005C14.9 2.20005 16.2 2.20005 16.9 3.00005L18.7 4.80005L21.7 1.80005L23.1 3.20005L20.1 6.20005L21.9 8.00005ZM16.1 13.8L14.7 12.4L11.9 15.2L9.8 13.1L12.6 10.3L11.2 8.90005L8.4 11.7L6.9 10.3L4.1 13.1C3.3 13.9 3.3 15.2 4.1 15.9L5.9 17.7L1.9 21.7001L3.3 23.1L7.3 19.1L9.1 20.9C9.9 21.7 11.2 21.7 11.9 20.9L14.7 18.1L13.3 16.7L16.1 13.8Z" fill="black"/>
</svg>
