<svg width="25" height="25" viewBox="0 0 25 25" fill="none" xmlns="http://www.w3.org/2000/svg">
<path d="M12.5 11.5C15 11.5 17.125 11.1083 18.875 10.325C20.625 9.54167 21.5 8.6 21.5 7.5C21.5 6.4 20.625 5.45833 18.875 4.675C17.125 3.89167 15 3.5 12.5 3.5C10 3.5 7.875 3.89167 6.125 4.675C4.375 5.45833 3.5 6.4 3.5 7.5C3.5 8.6 4.375 9.54167 6.125 10.325C7.875 11.1083 10 11.5 12.5 11.5ZM12.5 14C13.1833 14 14.0377 13.929 15.063 13.787C16.0883 13.645 17.0757 13.416 18.025 13.1C18.975 12.7833 19.7917 12.371 20.475 11.863C21.1583 11.355 21.5 10.734 21.5 10V12.5C21.5 13.2333 21.1583 13.8543 20.475 14.363C19.7917 14.8717 18.975 15.284 18.025 15.6C17.075 15.9167 16.0877 16.146 15.063 16.288C14.0383 16.43 13.184 16.5007 12.5 16.5C11.8167 16.5 10.9623 16.429 9.937 16.287C8.91167 16.145 7.92467 15.916 6.976 15.6C6.026 15.2833 5.20933 14.871 4.526 14.363C3.84267 13.855 3.50067 13.234 3.5 12.5V10C3.5 10.7333 3.84167 11.3543 4.525 11.863C5.20833 12.3717 6.025 12.784 6.975 13.1C7.925 13.4167 8.91267 13.646 9.938 13.788C10.9633 13.93 11.8173 14.0007 12.5 14ZM12.5 19C13.1833 19 14.0377 18.929 15.063 18.787C16.0883 18.645 17.0757 18.416 18.025 18.1C18.975 17.7833 19.7917 17.3707 20.475 16.862C21.1583 16.3533 21.5 15.7327 21.5 15V17.5C21.5 18.2333 21.1583 18.8543 20.475 19.363C19.7917 19.8717 18.975 20.284 18.025 20.6C17.075 20.9167 16.0877 21.146 15.063 21.288C14.0383 21.43 13.184 21.5007 12.5 21.5C11.8167 21.5 10.9623 21.429 9.937 21.287C8.91167 21.145 7.92467 20.916 6.976 20.6C6.026 20.2833 5.20933 19.8707 4.526 19.362C3.84267 18.8533 3.50067 18.2327 3.5 17.5V15C3.5 15.7333 3.84167 16.3543 4.525 16.863C5.20833 17.3717 6.025 17.784 6.975 18.1C7.925 18.4167 8.91267 18.646 9.938 18.788C10.9633 18.93 11.8173 19.0007 12.5 19Z" fill="black"/>
</svg>
