<svg width="25" height="25" viewBox="0 0 25 25" fill="none" xmlns="http://www.w3.org/2000/svg">
<g clip-path="url(#clip0_4349_5688)">
<path d="M1.13068 16.4928H7.44647V22.8086H1.13068V16.4928ZM19.0044 9.1033L15.4675 5.56646C15.2149 5.31383 15.2149 4.93488 15.4675 4.68225L19.0044 1.14541C19.257 0.892775 19.6359 0.892775 19.8886 1.14541L23.4254 4.68225C23.678 4.93488 23.678 5.31383 23.4254 5.56646L19.8886 9.1033C19.6359 9.35593 19.257 9.35593 19.0044 9.1033Z" fill="#B6B6B6"/>
<path d="M4.28947 8.91415C6.38234 8.91415 8.07895 7.21755 8.07895 5.12468C8.07895 3.03181 6.38234 1.33521 4.28947 1.33521C2.19661 1.33521 0.5 3.03181 0.5 5.12468C0.5 7.21755 2.19661 8.91415 4.28947 8.91415Z" fill="black"/>
<path d="M19.4514 23.4402C21.5443 23.4402 23.2409 21.7435 23.2409 19.6507C23.2409 17.5578 21.5443 15.8612 19.4514 15.8612C17.3585 15.8612 15.6619 17.5578 15.6619 19.6507C15.6619 21.7435 17.3585 23.4402 19.4514 23.4402Z" fill="black"/>
<path d="M3.66406 12.0715H4.92722V15.2294H3.66406V12.0715Z" fill="#9F9F9F"/>
<path d="M4.29745 10.1763L2.40271 12.7026H6.19218L4.29745 10.1763Z" fill="#9F9F9F"/>
<path d="M9.34943 4.49402H12.5073V5.75718H9.34943V4.49402Z" fill="#9F9F9F"/>
<path d="M14.3985 5.12521L11.8722 3.23047V7.01994L14.3985 5.12521Z" fill="#9F9F9F"/>
<path d="M18.8146 10.1763H20.0778V13.3342H18.8146V10.1763Z" fill="#9F9F9F"/>
<path d="M19.448 15.2285L21.3428 12.7021H17.5533L19.448 15.2285Z" fill="#9F9F9F"/>
</g>
<defs>
<clipPath id="clip0_4349_5688">
<rect width="24" height="24" fill="white" transform="translate(0.5 0.5)"/>
</clipPath>
</defs>
</svg>
