<svg width="17" height="17" viewBox="0 0 17 17" fill="none" xmlns="http://www.w3.org/2000/svg">
<path opacity="0.5" d="M2.82552 10.9525C2.4719 10.9525 2.13276 10.812 1.88271 10.5619C1.63266 10.3119 1.49219 9.97276 1.49219 9.61914C1.49219 9.26552 1.63266 8.92638 1.88271 8.67633C2.13276 8.42628 2.4719 8.28581 2.82552 8.28581C3.17914 8.28581 3.51828 8.42628 3.76833 8.67633C4.01838 8.92638 4.15885 9.26552 4.15885 9.61914C4.15885 9.97276 4.01838 10.3119 3.76833 10.5619C3.51828 10.812 3.17914 10.9525 2.82552 10.9525ZM2.82552 4.28581C2.4719 4.28581 2.13276 4.14533 1.88271 3.89528C1.63266 3.64523 1.49219 3.3061 1.49219 2.95247C1.49219 2.59885 1.63266 2.25971 1.88271 2.00966C2.13276 1.75962 2.4719 1.61914 2.82552 1.61914C3.17914 1.61914 3.51828 1.75962 3.76833 2.00966C4.01838 2.25971 4.15885 2.59885 4.15885 2.95247C4.15885 3.3061 4.01838 3.64523 3.76833 3.89528C3.51828 4.14533 3.17914 4.28581 2.82552 4.28581ZM9.49219 4.28581C9.13857 4.28581 8.79943 4.14533 8.54938 3.89528C8.29933 3.64523 8.15885 3.3061 8.15885 2.95247C8.15885 2.59885 8.29933 2.25971 8.54938 2.00966C8.79943 1.75962 9.13857 1.61914 9.49219 1.61914C9.84581 1.61914 10.1849 1.75962 10.435 2.00966C10.685 2.25971 10.8255 2.59885 10.8255 2.95247C10.8255 3.3061 10.685 3.64523 10.435 3.89528C10.1849 4.14533 9.84581 4.28581 9.49219 4.28581ZM9.49219 10.9525C9.13857 10.9525 8.79943 10.812 8.54938 10.5619C8.29933 10.3119 8.15885 9.97276 8.15885 9.61914C8.15885 9.26552 8.29933 8.92638 8.54938 8.67633C8.79943 8.42628 9.13857 8.28581 9.49219 8.28581C9.84581 8.28581 10.1849 8.42628 10.435 8.67633C10.685 8.92638 10.8255 9.26552 10.8255 9.61914C10.8255 9.97276 10.685 10.3119 10.435 10.5619C10.1849 10.812 9.84581 10.9525 9.49219 10.9525Z" fill="#A1A1AA"/>
<path d="M6.82552 14.9525C6.4719 14.9525 6.13276 14.812 5.88271 14.5619C5.63266 14.3119 5.49219 13.9728 5.49219 13.6191C5.49219 13.2655 5.63266 12.9264 5.88271 12.6763C6.13276 12.4263 6.4719 12.2858 6.82552 12.2858C7.17914 12.2858 7.51828 12.4263 7.76833 12.6763C8.01838 12.9264 8.15885 13.2655 8.15885 13.6191C8.15885 13.9728 8.01838 14.3119 7.76833 14.5619C7.51828 14.812 7.17914 14.9525 6.82552 14.9525ZM6.82552 8.28581C6.4719 8.28581 6.13276 8.14533 5.88271 7.89528C5.63266 7.64523 5.49219 7.3061 5.49219 6.95247C5.49219 6.59885 5.63266 6.25971 5.88271 6.00967C6.13276 5.75962 6.4719 5.61914 6.82552 5.61914C7.17914 5.61914 7.51828 5.75962 7.76833 6.00967C8.01838 6.25971 8.15885 6.59885 8.15885 6.95247C8.15885 7.3061 8.01838 7.64523 7.76833 7.89528C7.51828 8.14533 7.17914 8.28581 6.82552 8.28581ZM13.4922 8.28581C13.1386 8.28581 12.7994 8.14533 12.5494 7.89528C12.2993 7.64523 12.1589 7.3061 12.1589 6.95247C12.1589 6.59885 12.2993 6.25971 12.5494 6.00967C12.7994 5.75962 13.1386 5.61914 13.4922 5.61914C13.8458 5.61914 14.1849 5.75962 14.435 6.00967C14.685 6.25971 14.8255 6.59885 14.8255 6.95247C14.8255 7.3061 14.685 7.64523 14.435 7.89528C14.1849 8.14533 13.8458 8.28581 13.4922 8.28581ZM13.4922 14.9525C13.1386 14.9525 12.7994 14.812 12.5494 14.5619C12.2993 14.3119 12.1589 13.9728 12.1589 13.6191C12.1589 13.2655 12.2993 12.9264 12.5494 12.6763C12.7994 12.4263 13.1386 12.2858 13.4922 12.2858C13.8458 12.2858 14.1849 12.4263 14.435 12.6763C14.685 12.9264 14.8255 13.2655 14.8255 13.6191C14.8255 13.9728 14.685 14.3119 14.435 14.5619C14.1849 14.812 13.8458 14.9525 13.4922 14.9525Z" fill="#A1A1AA"/>
<path opacity="0.25" d="M8.34402 3.61898C8.22266 3.41778 8.15852 3.18728 8.15852 2.95231C8.15852 2.71735 8.22266 2.48684 8.34402 2.28564H3.97336C4.09472 2.48684 4.15887 2.71735 4.15887 2.95231C4.15887 3.18728 4.09472 3.41778 3.97336 3.61898H8.34402ZM2.82536 8.28564C3.06011 8.28704 3.29024 8.35102 3.49202 8.47098V4.10031C3.29083 4.22168 3.06032 4.28582 2.82536 4.28582C2.59039 4.28582 2.35989 4.22168 2.15869 4.10031V8.47098C2.36048 8.35102 2.59061 8.28704 2.82536 8.28564Z" fill="#A1A1AA"/>
<path opacity="0.5" d="M13.492 12.2857C13.7268 12.2871 13.9569 12.351 14.1587 12.471V8.10034C13.9575 8.22171 13.727 8.28585 13.492 8.28585C13.2571 8.28585 13.0266 8.22171 12.8254 8.10034V12.471C13.0271 12.351 13.2573 12.2871 13.492 12.2857ZM6.82536 12.2857C7.06011 12.2871 7.29024 12.351 7.49202 12.471V8.10034C7.29083 8.22171 7.06032 8.28585 6.82536 8.28585C6.59039 8.28585 6.35989 8.22171 6.15869 8.10034V12.471C6.36048 12.351 6.59061 12.2871 6.82536 12.2857Z" fill="#A1A1AA"/>
<path opacity="0.25" d="M8.34406 8.95239H7.49206V10.2857H8.34406C8.22269 10.0845 8.15855 9.85402 8.15855 9.61906C8.15855 9.38409 8.22269 9.15359 8.34406 8.95239ZM6.15872 10.2857V8.95239H3.97339C4.09476 9.15359 4.1589 9.38409 4.1589 9.61906C4.1589 9.85402 4.09476 10.0845 3.97339 10.2857H6.15872Z" fill="#A1A1AA"/>
<path opacity="0.5" d="M12.3441 12.9523H7.97339C8.09476 13.1535 8.1589 13.384 8.1589 13.619C8.1589 13.8539 8.09476 14.0845 7.97339 14.2856H12.3441C12.2227 14.0845 12.1585 13.8539 12.1585 13.619C12.1585 13.384 12.2227 13.1535 12.3441 12.9523ZM12.3441 7.61898C12.2227 7.41778 12.1585 7.18728 12.1585 6.95231C12.1585 6.71735 12.2227 6.48684 12.3441 6.28564H7.97339C8.09476 6.48684 8.1589 6.71735 8.1589 6.95231C8.1589 7.18728 8.09476 7.41778 7.97339 7.61898H12.3441Z" fill="#A1A1AA"/>
<path opacity="0.25" d="M10.1585 6.28568V4.10034C9.95733 4.22171 9.72683 4.28585 9.49186 4.28585C9.2569 4.28585 9.02639 4.22171 8.8252 4.10034V6.28568H10.1585ZM8.8252 7.61901V8.47101C9.02639 8.34964 9.2569 8.2855 9.49186 8.2855C9.72683 8.2855 9.95733 8.34964 10.1585 8.47101V7.61901H8.8252Z" fill="#A1A1AA"/>
</svg>
